<svg width="16" height="12" viewBox="0 0 16 12" fill="none" xmlns="http://www.w3.org/2000/svg">
<path d="M9.61995 11.275C9.41995 11.075 9.32395 10.8333 9.33195 10.55C9.33995 10.2667 9.44428 10.025 9.64495 9.82499L12.4699 6.99999H1.31995C1.03662 6.99999 0.79895 6.90399 0.60695 6.71199C0.41495 6.51999 0.319283 6.28265 0.31995 5.99999C0.31995 5.71665 0.41595 5.47899 0.60795 5.28699C0.79995 5.09499 1.03728 4.99932 1.31995 4.99999H12.4699L9.61995 2.14999C9.41995 1.94999 9.31995 1.71232 9.31995 1.43699C9.31995 1.16165 9.41995 0.924321 9.61995 0.724988C9.81995 0.524988 10.0576 0.424988 10.3329 0.424988C10.6083 0.424988 10.8456 0.524988 11.045 0.724988L15.6199 5.29999C15.7199 5.39999 15.791 5.50832 15.833 5.62499C15.875 5.74165 15.8956 5.86665 15.895 5.99999C15.895 6.13332 15.8739 6.25832 15.8319 6.37499C15.7899 6.49165 15.7193 6.59999 15.6199 6.69999L11.0199 11.3C10.8366 11.4833 10.6076 11.575 10.3329 11.575C10.0583 11.575 9.82062 11.475 9.61995 11.275Z" fill="blue"/>
</svg>
