<svg width="21" height="21" viewBox="0 0 21 21" fill="none" xmlns="http://www.w3.org/2000/svg">
<path d="M5.857 0.445002C7 1.278 7.89 2.415 8.65 3.503L9.092 4.147L9.509 4.762C9.71758 5.06673 9.80677 5.43755 9.75956 5.8038C9.71235 6.17005 9.53204 6.50613 9.253 6.748L7.302 8.197C7.20774 8.26507 7.14139 8.36503 7.11528 8.47832C7.08916 8.59162 7.10505 8.71054 7.16 8.813C7.602 9.616 8.388 10.812 9.288 11.712C10.189 12.612 11.441 13.45 12.3 13.942C12.4077 14.0025 12.5345 14.0194 12.6543 13.9892C12.774 13.9591 12.8777 13.8842 12.944 13.78L14.214 11.847C14.4475 11.5368 14.7919 11.3291 15.1752 11.2672C15.5584 11.2053 15.9508 11.2941 16.27 11.515L16.933 11.974C18.172 12.834 19.503 13.811 20.521 15.114C20.6824 15.3218 20.7851 15.5691 20.8184 15.8302C20.8516 16.0912 20.8142 16.3564 20.71 16.598C19.873 18.551 17.755 20.214 15.552 20.133L15.252 20.116L15.019 20.096L14.761 20.066L14.48 20.028L14.175 19.978C14.1216 19.9684 14.0683 19.9584 14.015 19.948L13.679 19.876C13.6202 19.8631 13.5616 19.8498 13.503 19.836L13.137 19.742L12.752 19.632L12.35 19.502C10.504 18.876 8.161 17.646 5.757 15.242C3.354 12.839 2.124 10.496 1.498 8.65L1.368 8.248L1.258 7.863L1.164 7.497L1.086 7.151C1.06347 7.04264 1.04247 6.93396 1.023 6.825L0.973 6.52L0.933 6.239L0.904 5.981L0.884 5.748L0.868 5.448C0.787 3.252 2.468 1.119 4.412 0.286002C4.64598 0.184969 4.9022 0.146502 5.15553 0.174377C5.40886 0.202252 5.65059 0.295511 5.857 0.445002ZM13.992 4.04L14.108 4.053C14.8359 4.1814 15.5045 4.53694 16.0179 5.06868C16.5313 5.60042 16.8632 6.28104 16.966 7.013C17.0027 7.26618 16.9409 7.52378 16.7934 7.73281C16.6459 7.94183 16.4239 8.08638 16.1731 8.13673C15.9223 8.18707 15.6617 8.13937 15.445 8.00345C15.2283 7.86753 15.0719 7.65372 15.008 7.406L14.985 7.291C14.9448 7.0041 14.8223 6.73499 14.6324 6.51619C14.4426 6.29738 14.1934 6.13824 13.915 6.058L13.76 6.023C13.5089 5.9785 13.2843 5.83974 13.1321 5.63511C12.9799 5.43048 12.9117 5.17544 12.9413 4.92215C12.9709 4.66886 13.0962 4.43646 13.2915 4.27248C13.4868 4.10851 13.7374 4.02534 13.992 4.04ZM14 1C15.5913 1 17.1174 1.63214 18.2426 2.75736C19.3679 3.88258 20 5.4087 20 7C19.9997 7.25488 19.9021 7.50003 19.7272 7.68537C19.5522 7.87071 19.313 7.98224 19.0586 7.99717C18.8042 8.01211 18.5536 7.92933 18.3582 7.76574C18.1627 7.60215 18.0371 7.3701 18.007 7.117L18 7C18.0004 5.98442 17.6142 5.00676 16.92 4.26553C16.2257 3.52429 15.2754 3.07505 14.262 3.009L14 3C13.7348 3 13.4804 2.89464 13.2929 2.70711C13.1054 2.51957 13 2.26522 13 2C13 1.73479 13.1054 1.48043 13.2929 1.2929C13.4804 1.10536 13.7348 1 14 1Z" fill="white"/>
</svg>
