<svg width="14" height="15" viewBox="0 0 14 15" fill="none" xmlns="http://www.w3.org/2000/svg">
<path d="M6.9674 0.213211C7.88898 0.213211 8.77281 0.579307 9.42447 1.23096C10.0761 1.88262 10.4422 2.76645 10.4422 3.68803C10.4422 4.60961 10.0761 5.49344 9.42447 6.1451C8.77281 6.79675 7.88898 7.16285 6.9674 7.16285C6.04582 7.16285 5.16198 6.79675 4.51033 6.1451C3.85868 5.49344 3.49258 4.60961 3.49258 3.68803C3.49258 2.76645 3.85868 1.88262 4.51033 1.23096C5.16198 0.579307 6.04582 0.213211 6.9674 0.213211ZM6.9674 8.90026C10.8071 8.90026 13.917 10.4552 13.917 12.3751V14.1125H0.0177612V12.3751C0.0177612 10.4552 3.12772 8.90026 6.9674 8.90026Z" fill="#4691F2"/>
</svg>
